<svg width="89" height="89" viewBox="0 0 89 89" fill="none" xmlns="http://www.w3.org/2000/svg">
<path d="M85.2853 61.3149L77.3383 53.3678C74.9694 51.0179 71.7719 49.693 68.4352 49.6788C65.0985 49.6646 61.8898 50.9623 59.501 53.292C58.2263 54.5739 56.5447 55.3715 54.7456 55.5475C52.9464 55.7236 51.1421 55.267 49.6431 54.2564C43.727 50.3081 38.6445 45.2354 34.6848 39.3269C33.692 37.8112 33.252 35.9997 33.4388 34.1974C33.6257 32.3952 34.428 30.7125 35.7107 29.4328C38.0192 27.0417 39.3001 23.8419 39.2792 20.5183C39.2583 17.1947 37.9372 14.0113 35.5987 11.6495L27.6517 3.70245C25.2725 1.33137 22.0505 0 18.6915 0C15.3325 0 12.1105 1.33137 9.7313 3.70245L7.44474 5.99265C-4.47571 17.9132 -3.58349 42.9753 21.2183 67.7628C36.173 82.7213 51.2253 88.985 63.4311 88.985C67.0241 89.1046 70.605 88.508 73.9651 87.2298C77.3251 85.9516 80.3972 84.0175 83.0023 81.5401L85.2925 79.2499C87.6679 76.8696 89.0014 73.6437 89 70.2809C88.9986 66.9181 87.6626 63.6933 85.2853 61.3149ZM80.1775 74.1421L77.8874 76.4323C68.4955 85.8242 47.7648 84.1084 26.3188 62.6586C4.87281 41.2089 3.15338 20.4635 12.5452 11.0715L14.8174 8.78495C15.8404 7.76562 17.2257 7.19328 18.6698 7.19328C20.114 7.19328 21.4993 7.76562 22.5223 8.78495L30.4693 16.732C31.4737 17.7415 32.0438 19.1035 32.058 20.5275C32.0722 21.9515 31.5293 23.3246 30.5451 24.3539C28.1042 26.8104 26.5816 30.0311 26.2325 33.4764C25.8833 36.9217 26.7286 40.3824 28.627 43.2787C33.1262 50.0117 38.912 55.7889 45.6516 60.2781C48.5392 62.1768 51.9907 63.0272 55.4298 62.6873C58.8689 62.3474 62.0873 60.8378 64.5473 58.4106C65.5746 57.4148 66.9516 56.8618 68.3823 56.8706C69.813 56.8794 71.1831 57.4492 72.1981 58.4575L80.145 66.4046C80.6572 66.9094 81.0645 67.5104 81.3435 68.1732C81.6225 68.836 81.7677 69.5475 81.7707 70.2666C81.7738 70.9857 81.6346 71.6983 81.3611 72.3634C81.0877 73.0285 80.6855 73.633 80.1775 74.1421Z" fill="#A69999"/>
</svg>
