<?xml version="1.0" standalone="no"?>
<!DOCTYPE svg PUBLIC "-//W3C//DTD SVG 20010904//EN"
 "http://www.w3.org/TR/2001/REC-SVG-20010904/DTD/svg10.dtd">
<svg version="1.0" xmlns="http://www.w3.org/2000/svg"
 width="1096.000000pt" height="1024.000000pt" viewBox="0 0 1096.000000 1024.000000"
 preserveAspectRatio="xMidYMid meet">

<g transform="translate(0.000000,1024.000000) scale(0.100000,-0.100000)"
fill="#000000" stroke="none">
<path d="M0 5120 l0 -5120 5475 0 5475 0 0 5120 0 5120 -5475 0 -5475 0 0
-5120z m5875 3826 c55 -25 126 -89 148 -133 8 -15 20 -56 27 -91 15 -72 3
-153 -32 -209 -30 -50 -111 -118 -159 -133 -89 -27 -89 -27 -89 -149 0 -89 3
-112 18 -129 10 -13 57 -32 122 -51 58 -16 168 -48 245 -71 77 -23 194 -58
260 -77 118 -34 166 -48 265 -78 28 -8 71 -21 98 -28 26 -8 63 -19 82 -25 56
-18 252 -77 410 -122 80 -24 235 -69 345 -102 110 -33 214 -64 230 -68 17 -4
113 -32 215 -63 452 -136 729 -217 744 -217 21 0 32 -28 17 -43 -6 -6 -11 -23
-11 -37 0 -14 126 -402 281 -861 154 -458 287 -854 294 -879 44 -148 592
-1766 616 -1818 16 -35 29 -66 29 -70 0 -4 7 -20 16 -37 39 -74 88 -239 108
-370 56 -348 -43 -740 -259 -1030 -164 -222 -384 -388 -640 -485 -33 -12 -75
-29 -93 -36 -18 -8 -45 -14 -60 -14 -15 0 -48 -6 -73 -14 -117 -36 -435 -28
-589 14 -41 11 -89 24 -107 29 -63 17 -253 106 -316 149 -23 16 -49 31 -57 34
-35 14 -222 193 -286 274 -119 153 -181 266 -239 439 -37 110 -49 175 -66 340
-10 97 -9 129 10 265 20 147 28 185 66 305 23 72 26 77 129 283 24 50 172 485
552 1627 54 160 123 369 156 465 272 809 468 1401 468 1414 0 21 -23 31 -105
46 -38 7 -124 24 -190 37 -66 13 -176 35 -245 48 -121 23 -416 82 -745 150
-88 18 -187 38 -220 44 -33 7 -89 18 -125 26 -36 8 -236 48 -445 90 -209 41
-411 81 -450 89 -38 8 -108 22 -155 31 -47 10 -111 24 -143 31 -66 16 -113 18
-121 6 -2 -4 -1 -113 4 -242 19 -520 31 -811 45 -1140 15 -342 26 -623 45
-1125 10 -288 34 -868 51 -1245 5 -135 14 -364 19 -510 23 -717 28 -773 100
-1360 16 -135 36 -301 44 -370 19 -166 43 -229 116 -301 65 -66 128 -100 225
-122 64 -15 129 -24 515 -73 69 -8 170 -22 225 -30 55 -8 118 -17 140 -20 141
-19 361 -81 455 -129 63 -32 200 -137 231 -177 47 -60 75 -116 64 -127 -14
-14 -4704 -16 -4717 -3 -21 21 8 70 96 158 63 63 114 103 166 131 71 39 274
113 309 113 9 0 41 6 71 14 64 16 286 49 485 71 534 62 634 90 745 212 66 72
75 110 94 373 9 118 27 330 41 470 14 140 30 329 35 420 34 569 42 737 50
1105 13 556 31 1039 40 1045 4 3 12 111 19 240 6 129 18 339 26 465 8 127 19
325 25 440 7 116 18 325 25 465 8 140 19 347 25 460 5 113 15 271 20 352 6 80
13 221 17 312 l6 165 -47 21 c-26 11 -82 29 -124 40 -68 17 -446 126 -622 179
-56 17 -288 87 -455 136 -27 8 -102 30 -165 49 -63 19 -171 51 -240 71 -409
116 -365 103 -575 168 -60 19 -146 44 -190 56 -44 12 -98 28 -120 35 -22 8
-65 21 -95 29 -48 14 -220 65 -332 99 -20 6 -44 8 -52 5 -30 -12 -50 56 237
-797 75 -223 223 -659 327 -970 105 -311 267 -794 361 -1075 177 -527 191
-565 269 -700 82 -143 145 -329 174 -515 20 -128 21 -220 2 -331 -8 -46 -17
-105 -20 -130 -4 -25 -18 -77 -32 -115 -14 -38 -31 -87 -39 -110 -18 -57 -67
-152 -133 -258 -64 -104 -244 -291 -352 -368 -122 -86 -291 -171 -383 -194
-15 -3 -30 -10 -33 -15 -3 -5 -18 -9 -34 -9 -15 0 -59 -10 -96 -21 -61 -19
-93 -22 -264 -22 -152 -1 -206 3 -245 15 -27 9 -76 19 -107 22 -31 3 -69 12
-85 20 -15 8 -72 32 -125 55 -166 69 -287 150 -423 286 -146 144 -285 347
-320 465 -4 14 -13 39 -20 55 -54 129 -80 283 -80 480 0 197 30 358 94 514 16
41 33 88 37 105 3 17 163 501 355 1076 193 575 431 1288 530 1585 99 297 183
547 186 555 3 8 34 100 70 204 55 164 62 194 53 219 -5 17 -10 32 -10 35 0 8
113 -6 182 -22 35 -9 203 -43 373 -76 171 -34 328 -65 350 -70 22 -5 90 -18
150 -30 61 -12 139 -27 175 -35 36 -8 99 -21 140 -29 41 -8 107 -22 145 -30
39 -8 86 -18 105 -21 19 -3 64 -13 100 -20 165 -35 242 -51 645 -132 237 -47
454 -90 484 -95 30 -5 57 -11 61 -13 15 -9 200 -34 214 -29 21 8 25 23 26 111
2 125 5 117 -49 142 -57 27 -151 112 -175 160 -27 51 -32 167 -12 229 21 62
90 134 168 174 72 37 179 39 253 4z m-3525 -81 c16 -15 39 -47 51 -70 l23 -43
-46 -45 c-56 -55 -99 -67 -153 -41 -43 20 -64 48 -72 97 -7 43 20 102 56 123
39 22 106 12 141 -21z m6841 -1694 c34 -34 39 -45 39 -84 0 -105 -122 -162
-198 -93 -31 28 -48 62 -56 111 -6 39 -5 41 41 72 70 48 122 46 174 -6z m-264
-27 c-3 -3 -12 -4 -19 -1 -8 3 -5 6 6 6 11 1 17 -2 13 -5z"/>
<path d="M2582 8393 c-14 -13 -72 -171 -188 -518 -92 -275 -174 -520 -182
-545 -17 -52 -57 -172 -331 -990 -110 -327 -225 -669 -255 -759 -31 -89 -56
-167 -56 -172 0 -21 30 -4 100 57 41 37 99 83 129 103 29 20 65 44 80 54 76
54 276 137 432 181 172 48 588 32 734 -29 17 -7 57 -22 90 -35 112 -42 250
-122 377 -217 31 -24 59 -43 62 -43 15 0 2 53 -51 208 -189 559 -376 1113
-388 1152 -8 25 -84 252 -170 505 -85 253 -167 496 -181 540 -14 44 -30 90
-35 103 -5 12 -38 111 -75 220 -36 108 -67 198 -69 200 -1 1 -11 -5 -23 -15z"/>
<path d="M8761 6838 c-13 -20 -167 -475 -822 -2431 -83 -247 -149 -460 -147
-473 l3 -25 45 31 c25 16 77 55 115 85 57 44 203 125 300 166 172 73 440 109
659 88 140 -13 281 -49 401 -104 28 -13 66 -30 85 -39 19 -8 44 -21 55 -28 11
-7 49 -32 85 -55 36 -22 97 -68 135 -102 39 -34 76 -61 83 -61 20 0 14 50 -19
140 -17 47 -37 105 -44 130 -7 25 -156 468 -330 985 -174 517 -320 954 -325
970 -47 166 -252 745 -263 745 -1 0 -9 -10 -16 -22z"/>
<path d="M2422 5091 c-16 -10 -42 -94 -33 -109 8 -13 80 -40 139 -53 77 -16
162 -77 162 -117 0 -10 -8 -13 -27 -9 -40 8 -137 32 -211 52 -34 9 -71 14 -81
10 -35 -11 -56 -100 -28 -123 12 -10 86 -31 197 -57 77 -18 118 -34 123 -50 7
-16 -28 -50 -66 -64 -35 -14 -127 -14 -161 -1 -14 5 -55 12 -90 16 -63 6 -64
6 -79 -23 -37 -70 -33 -107 20 -203 7 -14 27 -54 44 -90 17 -36 63 -130 101
-208 38 -79 73 -155 78 -168 10 -26 65 -56 140 -75 45 -11 51 -11 70 6 30 27
23 47 -97 294 -57 118 -103 224 -101 235 2 17 13 22 48 27 64 10 158 38 189
56 41 26 91 75 108 106 13 26 18 28 56 24 23 -3 54 -8 69 -12 42 -11 75 15 83
65 9 51 -2 64 -68 86 -68 22 -79 34 -79 84 1 54 13 67 47 52 42 -19 132 -27
150 -12 18 15 20 64 2 78 -7 6 -31 15 -52 20 -22 6 -85 22 -140 37 -55 15
-116 30 -135 34 -19 4 -51 13 -70 19 -19 6 -75 23 -125 38 -49 14 -100 30
-113 35 -28 11 -53 11 -70 0z"/>
<path d="M8520 3490 c-15 -29 -9 -101 10 -110 8 -4 55 -18 104 -30 103 -25
161 -51 176 -80 16 -30 -9 -35 -94 -21 -217 37 -215 37 -235 16 -29 -30 -35
-77 -14 -104 18 -21 91 -39 252 -61 69 -9 85 -18 79 -46 -10 -54 -132 -86
-247 -64 -105 19 -122 14 -144 -44 -10 -29 -15 -61 -12 -77 3 -15 44 -91 91
-169 47 -79 115 -197 150 -264 36 -67 74 -130 84 -140 10 -10 38 -22 62 -27
24 -4 60 -11 81 -14 29 -6 42 -4 57 10 26 23 23 31 -57 174 -36 64 -81 145
-101 181 -19 36 -48 85 -63 110 -33 54 -26 76 29 85 128 21 201 61 274 153 41
52 54 63 71 58 73 -20 95 -19 121 7 28 28 34 72 13 100 -7 10 -39 25 -72 33
-33 9 -66 20 -72 26 -7 6 -13 33 -13 61 l0 50 38 -7 c20 -3 58 -10 85 -14 35
-7 52 -5 67 5 23 16 27 65 8 80 -15 10 -112 33 -273 64 -171 32 -255 50 -312
65 -76 21 -130 19 -143 -6z"/>
</g>
</svg>
