<svg width="97" height="94" viewBox="0 0 97 94" fill="none" xmlns="http://www.w3.org/2000/svg">
<g clip-path="url(#clip0_522_514)">
<path d="M48.5 82.25C68.5894 82.25 84.875 66.468 84.875 47C84.875 27.532 68.5894 11.75 48.5 11.75C28.4106 11.75 12.125 27.532 12.125 47C12.125 66.468 28.4106 82.25 48.5 82.25Z" stroke="#C2B2B2" stroke-width="5" stroke-miterlimit="10"/>
<path d="M14.1965 35.25H82.8031" stroke="#C2B2B2" stroke-width="6" stroke-linecap="round" stroke-linejoin="round"/>
<path d="M14.198 58.75H82.8039" stroke="#C2B2B2" stroke-width="5" stroke-linecap="round" stroke-linejoin="round"/>
<path d="M48.5 81.3038C56.8706 81.3038 63.6562 65.9455 63.6562 47C63.6562 28.0546 56.8706 12.6963 48.5 12.6963C40.1294 12.6963 33.3438 28.0546 33.3438 47C33.3438 65.9455 40.1294 81.3038 48.5 81.3038Z" stroke="#C2B2B2" stroke-width="5" stroke-miterlimit="10"/>
</g>
<defs>
<clipPath id="clip0_522_514">
<rect width="97" height="94" fill="white"/>
</clipPath>
</defs>
</svg>
