<svg width="131" height="129" viewBox="0 0 131 129" fill="none" xmlns="http://www.w3.org/2000/svg">
<path d="M54.7463 89.6441C54.7463 86.0911 53.3497 82.8114 50.8358 80.0784L37.1493 66.6864C34.9147 64.5 31.2836 63.6801 28.2111 65.0466C25.1386 66.4131 23.4627 69.4195 23.742 72.6992C24.0213 74.8856 24.8593 77.072 26.8145 78.7119L33.7974 85.5445L31.8422 85.8178C29.049 85.8178 26.5352 84.7246 24.58 82.8114C19.8316 78.1653 17.3177 72.1525 17.3177 65.8665V59.3072C17.3177 54.3877 14.2452 50.0148 9.77612 48.1017C8.37953 47.5551 6.98294 47.0085 5.58635 47.0085C4.18977 46.7352 2.79318 47.2818 1.67591 48.1017C0.558635 48.9216 0 50.2881 0 51.6547V69.1462C0 78.9852 3.91045 88.2775 11.1727 95.3835L23.1834 107.409V108.229H15.3625V129H61.1706V108.229H54.7463V89.6441ZM26.5352 102.763L14.5245 91.0106C8.37953 84.9979 5.02772 77.072 5.02772 68.8729V52.4746C5.58635 52.7479 6.42431 52.7479 6.98294 53.0212C9.4968 54.1144 11.1727 56.5742 11.1727 59.0339V65.5932C11.1727 73.5191 14.2452 80.8983 20.1109 86.6377C23.1834 89.6441 27.3731 91.2839 31.5629 91.2839L38.5458 90.1907C39.6631 89.9174 40.7804 89.0975 41.0597 88.0042C41.339 86.911 41.0597 85.5445 40.2218 84.7246L30.1663 74.8856C29.3284 74.0657 28.7697 73.2458 28.7697 72.4258C28.7697 71.0593 29.6077 70.5127 30.1663 70.2394C30.4456 69.9661 31.5629 69.6928 32.6802 70.786L46.3667 84.178C48.0426 85.8178 48.8806 87.7309 48.8806 89.9174V107.956H27.9318V107.136C28.2111 105.222 27.6525 103.856 26.5352 102.763ZM55.3049 113.148V122.987H20.9488V113.148H22.6247H54.7463H55.3049ZM125.134 46.7352C124.855 46.7352 124.576 46.7352 124.296 46.7352C117.872 48.1017 113.124 53.8411 113.124 60.4004V65.5932C113.124 72.1525 110.61 78.1653 105.861 82.5381C103.906 84.4513 101.113 85.5445 98.5992 85.5445L96.6439 85.2712L103.627 78.4386C105.303 76.7987 106.42 74.6123 106.699 72.4258C106.979 69.1462 105.303 66.1398 102.23 64.7733C99.1578 63.4068 95.806 63.9534 93.2921 66.4131L79.6055 79.8051C77.0917 82.2648 75.6951 85.8178 75.6951 89.3708V107.409H69.2708V128.18H115.079V107.409H107.817V106.316L119.827 94.5636C127.09 87.4576 131 78.1653 131 68.3263V50.8347C131 49.4682 130.441 48.1017 129.324 47.2818C127.928 46.7352 126.531 46.4619 125.134 46.7352ZM109.213 113.148V122.987H74.8571V113.148H75.6951H107.817H109.213ZM125.134 68.5996C125.134 77.072 121.783 84.9979 115.638 90.7373L103.627 102.489C102.51 103.583 101.951 104.949 101.951 106.589V107.409H81.0021V89.3708C81.0021 87.1843 81.8401 85.2712 83.516 83.6314L97.2026 70.2394C98.3198 69.1462 99.4371 69.6928 99.7164 69.6928C99.9957 69.9661 101.113 70.5127 101.113 71.8792C101.113 72.6992 100.554 73.7924 99.7164 74.6123L89.661 84.4513C88.823 85.2712 88.5437 86.6377 88.823 87.7309C89.1023 88.8242 90.2196 89.6441 91.3369 89.9174L98.0405 91.0106H98.5992C103.068 91.0106 106.979 89.3708 110.051 86.3644C115.638 80.8983 118.989 73.2458 118.989 65.3199V60.1271C118.989 56.3008 121.503 52.7479 125.134 51.928V68.5996ZM89.3817 57.1208C91.3369 55.2076 92.7335 53.2945 94.1301 51.1081C102.51 37.7161 100.554 20.7712 89.3817 9.83898C82.9574 3.55297 74.2985 0 65.081 0C55.8635 0 47.484 3.55297 40.7804 9.83898C27.3731 22.9576 27.3731 44.0021 40.7804 57.1208C47.484 63.6801 56.1429 66.9597 65.081 66.9597C71.226 66.9597 77.6503 65.3199 83.2367 61.7669C85.4712 60.6737 87.4264 59.0339 89.3817 57.1208ZM44.6908 53.2945C33.5181 42.3623 33.5181 24.5975 44.6908 13.6653C49.9979 8.47246 57.2601 5.4661 64.8017 5.4661C72.3433 5.4661 79.6055 8.47246 84.9126 13.6653C94.4094 22.9576 96.0853 37.1695 89.1023 48.375C87.9851 50.2881 86.5885 51.928 85.1919 53.2945C83.516 54.9343 81.8401 56.0275 80.1642 57.3941C68.7122 64.2267 54.1876 62.5869 44.6908 53.2945Z" fill="#C2B2B2"/>
</svg>
