<svg width="28" height="29" viewBox="0 0 28 29" fill="none" xmlns="http://www.w3.org/2000/svg">
<path d="M27.065 26.2957L21.965 20.9918C23.6105 18.8052 24.5033 16.105 24.5 13.3253C24.5 10.8497 23.7962 8.42977 22.4776 6.37141C21.1591 4.31305 19.2849 2.70876 17.0922 1.7614C14.8995 0.814048 12.4867 0.566176 10.1589 1.04913C7.83115 1.53209 5.69295 2.72419 4.01472 4.47468C2.33649 6.22516 1.1936 8.45542 0.730582 10.8834C0.267559 13.3114 0.505199 15.8281 1.41345 18.1152C2.3217 20.4023 3.85977 22.3572 5.83316 23.7325C7.80655 25.1079 10.1266 25.842 12.5 25.842C15.165 25.8454 17.7537 24.9141 19.85 23.1978L24.935 28.5174C25.0745 28.664 25.2404 28.7804 25.4231 28.8599C25.6059 28.9393 25.802 28.9802 26 28.9802C26.198 28.9802 26.3941 28.9393 26.5769 28.8599C26.7597 28.7804 26.9256 28.664 27.065 28.5174C27.2056 28.372 27.3172 28.1989 27.3933 28.0083C27.4695 27.8176 27.5087 27.6131 27.5087 27.4066C27.5087 27.2 27.4695 26.9955 27.3933 26.8048C27.3172 26.6142 27.2056 26.4411 27.065 26.2957ZM3.50001 13.3253C3.50001 11.4686 4.02785 9.65365 5.01678 8.10988C6.00571 6.56612 7.41132 5.3629 9.05585 4.65238C10.7004 3.94186 12.51 3.75596 14.2558 4.11818C16.0016 4.48039 17.6053 5.37447 18.864 6.68733C20.1226 8.0002 20.9798 9.67289 21.3271 11.4939C21.6743 13.3149 21.4961 15.2024 20.8149 16.9177C20.1337 18.6331 18.9802 20.0992 17.5001 21.1307C16.0201 22.1622 14.28 22.7128 12.5 22.7128C10.1131 22.7128 7.82387 21.7238 6.13604 19.9633C4.44822 18.2028 3.50001 15.815 3.50001 13.3253Z" fill="white" fill-opacity="0.76"/>
</svg>
